<?xml version="1.0" encoding="UTF-8" standalone="no"?>
<!DOCTYPE svg PUBLIC "-//W3C//DTD SVG 20010904//EN"
"http://www.w3.org/TR/2001/REC-SVG-20010904/DTD/svg10.dtd">
<!-- Generator: Adobe Illustrator 12.0.0, SVG Export Plug-In . SVG Version: 6.00 Build 51448)  -->
<svg
   version="1.1"
   id="Layer_1"
   width="296.667"
   height="430.334"
   viewBox="0 0 296.667 430.334"
   overflow="visible"
   enable-background="new 0 0 296.667 430.334"
   xml:space="preserve"
   xmlns="http://www.w3.org/2000/svg"
   xmlns:xml="http://www.w3.org/XML/1998/namespace"
   xmlns:sodipodi="http://sodipodi.sourceforge.net/DTD/sodipodi-0.dtd"
   xmlns:inkscape="http://www.inkscape.org/namespaces/inkscape"
   xmlns:xlink="http://www.w3.org/1999/xlink"
   sodipodi:version="0.32"
   inkscape:version="0.39"
   xmlns:rdf="http://www.w3.org/1999/02/22-rdf-syntax-ns#"
   xmlns:cc="http://web.resource.org/cc/"
   xmlns:dc="http://purl.org/dc/elements/1.1/"
   sodipodi:docname="doelan.svg"
   sodipodi:docbase="/home/jourdren/workspace/doelan/src/site/xdocs/images/logos">
  <defs
     id="defs71" />
  <sodipodi:namedview
     id="base"
     pagecolor="#ffffff"
     bordercolor="#666666"
     borderopacity="1.0"
     inkscape:pageopacity="0.0"
     inkscape:pageshadow="2"
     inkscape:zoom="2.4559706"
     inkscape:cx="196.11705"
     inkscape:cy="179.30527"
     inkscape:window-width="1226"
     inkscape:window-height="993"
     inkscape:window-x="0"
     inkscape:window-y="0" />
  <g
     id="g1707"
     transform="translate(-47.33363,-126.7319)">
    <rect
       x="46.592415"
       y="211.57635"
       fill="#AEBDD4"
       width="413.51123"
       height="136.16463"
       id="rect9"
       style="fill:#aebdd4;stroke:#000000;stroke-width:2.2252839;stroke-miterlimit:4.0000000;stroke-opacity:1.0000000;" />
    <g
       id="g11"
       transform="matrix(0.500000,0.000000,0.000000,0.500000,48.18700,128.8797)">
		<g
   id="g13">
			<path
   fill-rule="evenodd"
   clip-rule="evenodd"
   d="M 73.355000,398.08200 C 74.036000,403.08600 74.203000,410.99400 73.355000,415.97000 C 69.188000,415.90500 67.369000,415.95900 65.353000,415.49900 C 65.342000,408.23100 65.282000,403.02000 64.882000,398.08200 C 66.885000,397.75900 71.976000,398.78600 73.355000,398.08200 z "
   id="path15"
   style="fill-rule:evenodd;" />

			<path
   fill-rule="evenodd"
   clip-rule="evenodd"
   d="M 44.641000,278.99100 C 43.957000,279.72000 42.805000,279.97800 41.346000,279.93200 C 41.063000,281.78400 44.603000,279.81200 44.170000,281.81400 C 43.543000,281.81400 42.915000,281.81400 42.288000,281.81400 C 42.408000,282.79200 44.355000,281.94400 44.642000,282.75500 C 43.542000,283.38300 43.737000,285.30300 41.818000,285.10900 C 42.750000,286.21600 45.095000,285.91100 46.525000,286.52100 C 45.832000,287.34600 43.044000,290.05800 42.759000,292.64000 C 42.648000,293.64700 43.844000,293.53400 44.171000,294.99400 C 44.657000,297.17000 42.203000,301.74900 46.054000,301.11300 C 45.849000,302.16400 45.221000,302.79200 44.171000,302.99600 C 44.731000,304.16200 47.614000,303.00600 47.466000,304.87900 C 45.144000,305.06800 43.472000,305.90600 42.759000,307.70300 C 42.609000,308.95100 45.396000,307.26300 44.642000,309.11500 C 43.544000,309.11500 42.445000,309.11500 41.347000,309.11500 C 41.160000,311.78700 43.849000,310.85600 45.583000,310.52800 C 45.273000,311.16000 44.577000,311.40500 43.700000,311.46900 C 46.552000,313.94100 52.056000,312.64700 56.409000,312.88100 C 61.184000,313.13800 70.237000,313.04700 71.472000,316.64700 C 72.040000,318.30200 70.908000,321.19000 71.001000,323.23600 C 71.641000,337.27600 73.157000,361.39200 71.942000,375.95800 C 70.424000,369.62500 49.778000,370.79200 44.170000,371.72100 C 44.370000,372.92300 45.402000,374.17900 43.229000,375.48800 C 44.711000,377.33500 46.386000,373.94000 47.466000,375.48800 C 47.151000,377.50900 45.455000,376.22600 44.642000,377.84200 C 43.987000,379.14400 45.242000,379.72500 45.113000,381.13600 C 45.093000,381.35500 43.699000,383.48600 43.700000,383.49000 C 44.124000,384.93200 46.277000,386.11500 47.466000,386.78500 C 47.551000,387.81200 47.080000,388.28300 46.054000,388.19700 C 46.610000,388.89600 46.461000,390.30100 47.937000,390.08000 C 47.228000,390.94000 45.906000,391.18700 45.113000,391.96300 C 47.053000,394.18600 43.378000,396.15700 45.584000,399.02400 C 43.559000,398.56800 44.280000,400.85900 43.230000,401.37800 C 46.094000,402.77100 46.080000,411.46800 50.291000,408.44000 C 53.199000,408.11600 50.241000,409.22900 50.291000,409.38100 C 51.023000,411.58500 52.758000,410.10000 53.586000,411.73400 C 54.950000,411.63700 52.046000,408.24000 54.528000,408.44000 C 57.099000,409.21100 52.953000,413.03500 52.645000,413.61700 C 52.508000,413.87700 52.871000,415.37900 52.645000,415.50100 C 48.234000,417.88600 37.366000,414.07500 31.462000,415.97200 C 32.038000,372.36800 33.816000,326.26100 33.816000,281.81700 C 33.816000,275.40200 34.854000,266.37400 33.816000,263.93000 C 32.902000,261.77900 29.246000,262.51700 27.226000,259.69400 C 26.839000,259.15300 27.804000,255.34000 26.285000,254.98700 C 26.351000,255.00200 24.954000,255.72500 24.873000,255.45800 C 24.155000,253.06700 24.167000,239.21500 25.344000,237.10000 C 26.520000,234.98700 29.067000,235.44100 30.992000,234.74600 C 31.672000,234.50100 37.626000,232.64200 38.053000,231.92100 C 38.783000,230.68900 38.791000,219.71400 38.053000,217.32900 C 37.647000,216.01800 35.148000,214.70300 35.229000,213.56300 C 35.380000,211.42900 37.576000,211.52800 39.936000,209.79800 C 40.852000,209.12500 40.979000,208.13800 42.290000,206.97400 C 44.664000,204.86300 48.998000,204.19400 49.821000,203.20700 C 51.577000,201.10300 48.781000,198.47000 49.350000,196.14600 C 49.815000,194.24800 52.329000,194.16100 52.645000,193.32100 C 53.248000,191.72000 52.059000,189.83200 52.645000,187.20200 C 52.645000,186.57500 52.645000,185.94700 52.645000,185.31900 C 52.513000,184.47800 53.090000,184.35300 53.116000,184.84900 C 53.962000,187.67900 52.610000,189.47400 53.116000,191.43800 C 53.621000,193.39900 55.592000,194.10600 55.940000,195.67500 C 56.799000,199.54200 53.406000,201.41200 57.352000,204.14800 C 58.722000,205.09700 60.268000,205.52000 61.589000,206.50200 C 63.237000,207.72700 69.812000,211.69300 70.062000,213.09300 C 70.429000,215.14400 67.467000,216.57700 67.238000,217.32800 C 66.271000,220.49300 66.379000,228.99700 67.238000,230.97800 C 69.369000,235.89400 80.023000,232.39700 79.947000,240.39400 C 79.907000,244.56400 80.939000,251.07700 80.418000,256.86900 C 79.839000,256.66300 79.452000,256.26700 79.477000,255.45700 C 76.425000,257.21800 79.173000,258.03900 77.594000,260.16400 C 75.188000,263.40100 69.216000,261.24400 71.004000,268.16600 C 68.580000,264.52600 60.214000,261.02100 52.646000,262.98800 C 48.097000,264.17100 46.285000,265.96800 44.644000,266.28300 C 45.564000,268.23300 44.407000,271.45300 43.702000,273.81500 C 45.786000,273.59000 46.043000,274.46200 47.468000,273.81500 C 46.614000,277.11900 42.127000,275.72600 44.641000,278.99100 z M 54.056000,324.18000 C 53.350000,323.15900 53.253000,321.53100 53.114000,319.94400 C 52.643000,319.94400 52.173000,319.94400 51.702000,319.94400 C 51.762000,324.08400 50.467000,326.86900 50.289000,330.77100 C 53.118000,329.18500 50.527000,324.39600 53.114000,323.23800 C 53.190000,325.99800 54.811000,329.68700 53.585000,332.18200 C 51.536000,332.85400 51.421000,330.57400 50.290000,331.71200 C 50.915000,333.47200 48.887000,334.96500 50.290000,335.94800 C 53.305000,329.65600 55.079000,338.04000 56.410000,337.83100 L 57.117000,339.00800 L 57.823000,337.83100 C 58.137000,337.83100 58.451000,337.83100 58.765000,337.83100 L 60.345000,338.53600 L 62.060000,338.30100 C 63.491000,333.93000 63.087000,324.28800 62.060000,320.41400 C 61.802000,321.09800 62.610000,322.84700 61.589000,322.76800 C 59.820000,322.33900 60.089000,319.87400 57.823000,319.94400 C 57.823000,320.88500 57.823000,321.82700 57.823000,322.76800 L 55.705000,322.84600 L 54.056000,324.18000 z M 48.407000,360.89600 C 48.523000,361.04200 48.234000,364.41500 49.819000,362.30900 C 48.565000,360.14000 49.292000,358.54000 48.407000,357.13000 C 48.438000,360.00500 44.262000,357.15300 44.170000,359.01400 C 46.314000,360.18600 47.292000,359.48600 48.407000,360.89600 z M 57.350000,361.83700 C 55.458000,360.01900 53.190000,361.45900 51.702000,359.48300 C 48.919000,363.44600 57.135000,364.07600 57.350000,361.83700 z "
   id="path17"
   style="fill-rule:evenodd;" />

			<path
   fill-rule="evenodd"
   clip-rule="evenodd"
   d="M 65.823000,270.98800 C 70.112000,271.87100 71.587000,271.77700 71.471000,276.63600 C 71.324000,282.85800 72.731000,294.21400 70.530000,295.46500 C 69.783000,295.88900 65.540000,292.25200 65.352000,291.69800 C 64.235000,288.41400 66.502000,276.11300 65.823000,270.98800 z "
   id="path19"
   style="fill-rule:evenodd;" />

			<g
   id="g21">
				<path
   fill-rule="evenodd"
   clip-rule="evenodd"
   fill="none"
   stroke="#000000"
   stroke-width="2.4921"
   stroke-linecap="round"
   d="M 57.115000,339.00800 C 56.655000,333.62200 56.419000,328.20900 55.702000,322.84600"
   id="path23"
   style="fill:none;fill-rule:evenodd;stroke:#000000;stroke-width:2.4921000;stroke-linecap:round;" />

				<path
   fill-rule="evenodd"
   clip-rule="evenodd"
   fill="none"
   stroke="#000000"
   stroke-width="2.8353"
   stroke-linecap="round"
   d="M 60.343000,338.53600 C 60.286000,334.14000 61.011000,329.51900 59.468000,325.35600"
   id="path25"
   style="fill:none;fill-rule:evenodd;stroke:#000000;stroke-width:2.8353000;stroke-linecap:round;" />

			</g>

		</g>

	</g>
    <text
       transform="scale(2.500000,2.500000)"
       font-family="'TrajanPro-Bold'"
       font-size="37.8169"
       id="text30"
       style="font-size:37.816898;font-family:'TrajanPro-Bold';"
       x="46.056202"
       y="132.48401">Doelan</text>
  </g>
  <metadata
     id="metadata72">
    <rdf:RDF
       id="RDF73">
      <cc:Work
         rdf:about=""
         id="Work74">
        <dc:format
           id="format75">image/svg+xml</dc:format>
        <dc:type
           id="type77"
           rdf:resource="http://purl.org/dc/dcmitype/StillImage" />
      </cc:Work>
    </rdf:RDF>
  </metadata>
</svg>
