<?xml version="1.0" standalone="no"?>
<!DOCTYPE svg PUBLIC "-//W3C//DTD SVG 20010904//EN" "http://www.w3.org/TR/2001/REC-SVG-20010904/DTD/svg10.dtd">
<!-- This file was created using the SVG export filter from Karbon14, a free vector drawing app. -->
<!-- It is part of koffice, the free, integrated office suite for KDE (http://www.koffice.org/). -->
<svg xmlns="http://www.w3.org/2000/svg" width="40px" height="40px">
<defs>
</defs>
<g transform="scale(1, -1) translate(0, -40)">
<path fill="#000000" d="M17.75 39.528C18.906 39.518 20.143 39.18 20.979 38.479L18.767 35.945C18.767 35.945 16.871 37.614 14.794 37C13.292 36.556 12.088 36.273 10.952 34.449C9.992 32.909 9.806 30.857 11.966 29.345C13.147 28.518 14.885 28.152 15.343 28.062C15.343 28.062 13.698 26.698 13.475 25.08C13.475 25.08 10.925 25.265 8.759 24.531C6.35699 23.716 3.97501 21.075 3.14999 19.096C2.32501 17.117 2.00601 15.316 3.14801 13.27C3.89401 11.931 5.94199 10.59 8.617 12.411C11.292 14.232 14.997 18.486 16.604 20.089C18.211 21.691 19.503 23.208 20.308 23.602C21.091 23.986 21.75 23.74 22.013 23.277C22.276 22.814 22.415 22.111 22.511 21.205C22.511 21.205 23.3 22.115 24.463 23.367C25.611 24.602 26.68 25.837 27.674 25.784C28.43 25.743 28.812 25.378 28.923 24.924C29.026 24.498 29.097 23.869 29.13 22.901C29.164 21.933 29.135 21.162 29.12 20.944C29.101 20.672 29.241 21.002 29.542 21.275C29.779 21.492 29.994 21.765 30.911 22.835C31.828 23.904 34.077 26.45 35.54 28.007C37.004 29.565 38.938 31.621 38.938 31.621C38.938 31.621 38.984 30.992 39.071 29.76C39.121 29.044 39.129 28.179 39.13 27.406C39.131 27.041 39.13 26.696 39.132 26.398C39.138 25.163 38.941 23.642 38.688 22.958C38.301 21.92 37.929 21.115 36.855 20.303C35.8 19.506 34.55 18.976 33.623 19.194C32.697 19.412 32.625 20.013 32.852 20.278C33.081 20.544 35.329 23.093 35.329 23.093L35.643 22.84C35.643 22.84 35.335 22.315 35.238 21.891C35.186 21.67 35.202 21.233 35.475 21.103C35.742 20.977 36.192 21.195 36.272 21.728C36.403 22.611 36.402 24.069 36.383 24.716C36.354 25.676 36.246 27.76 36.246 27.76C36.246 27.76 30.463 21.29 29.594 20.194C28.725 19.1 28.077 18.423 27.739 18.004C27.402 17.586 26.731 16.748 26.551 17.319C26.372 17.889 26.651 19.341 26.669 20.285C26.687 21.229 26.915 22.795 26.233 22.987C25.652 23.15 24.911 22.622 24.095 21.723C23.44 21.003 22.873 20.303 22.546 19.848C22.22 19.394 22.201 19.202 22.201 19.202L21.949 17.961C21.949 17.961 21.487 17.124 20.814 16.406C20.606 16.183 20.156 15.465 19.782 15.121C19.392 14.763 19.302 14.875 19.302 14.875C19.302 14.875 19.886 18.273 19.938 19.111C19.989 19.948 19.872 21.065 18.833 20.677C18.121 20.411 17.143 19.24 16.119 18.019C15.096 16.798 13.342 14.801 11.589 12.918C9.83499 11.035 7.42499 8.66199 4.966 8.48599C2.57501 8.314 0.484985 9.66199 0.43399 13.282C0.431 13.482 0.434998 13.689 0.444 13.903C0.597992 17.241 2.66 20.779 4.702 23.105C6.746 25.431 8.43201 26.344 9.30499 26.747C9.30499 26.747 8.09601 28.21 8.17599 29.713C8.26401 31.342 8.75 33.596 10.827 35.815C12.903 38.035 14.912 38.955 16.25 39.34C16.702 39.469 17.217 39.533 17.75 39.528L17.75 39.528Z"  />
<path fill="#000000" d="M1.55499 0.28299C1.41599 0.277008 1.42099 0.424988 1.42099 0.424988C1.42099 0.424988 1.90601 1.24399 2.358 1.91199C2.91101 2.728 3.155 3.38599 3.33301 3.47198C3.51199 3.55701 6.55499 5.202 8.651 6.185C10.747 7.168 14.193 8.57901 17.54 9.77899C20.887 10.98 26.581 12.666 29.618 13.339C35.502 14.642 38.979 15.055 38.979 15.055C38.979 15.055 38.604 14.814 38.227 14.431C37.848 14.048 37.378 13.598 37.378 13.598C37.378 13.598 34.524 13.479 30.972 12.726C27.711 12.036 25.455 11.294 22.884 10.403C20.848 9.69699 15.924 7.92599 12.228 6.27301C8.255 4.496 5.49301 2.616 4.17899 1.85101C2.86499 1.08499 1.86899 0.420013 1.74799 0.35199C1.664 0.303986 1.60101 0.285004 1.55499 0.28299L1.55499 0.28299Z"  />
</g>
</svg>
